<svg width="180" height="180" viewBox="0 0 180 180" fill="none" xmlns="http://www.w3.org/2000/svg">
  <rect width="180" height="180" rx="36" fill="#fdf2f8"/>
  <circle cx="90" cy="90" r="50" fill="#ec4899"/>
  <path d="M90 50c-22.091 0-40 17.909-40 40s17.909 40 40 40 40-17.909 40-40-17.909-40-40-40zm0 60c-11.046 0-20-8.954-20-20s8.954-20 20-20 20 8.954 20 20-8.954 20-20 20z" fill="white"/>
  <path d="M90 60c-11.046 0-20 8.954-20 20s8.954 20 20 20 20-8.954 20-20-8.954-20-20-20zm0 30c-5.514 0-10-4.486-10-10s4.486-10 10-10 10 4.486 10 10-4.486 10-10 10z" fill="#ec4899"/>
  <path d="M80 70h20v20h-20z" fill="white"/>
  <path d="M85 75h10v10h-10z" fill="#ec4899"/>
</svg> 