<svg width="192" height="192" viewBox="0 0 192 192" fill="none" xmlns="http://www.w3.org/2000/svg">
  <rect width="192" height="192" rx="48" fill="#fdf2f8"/>
  <circle cx="96" cy="96" r="60" fill="#ec4899"/>
  <path d="M96 60c-19.882 0-36 16.118-36 36s16.118 36 36 36 36-16.118 36-36-16.118-36-36-36zm0 60c-13.255 0-24-10.745-24-24s10.745-24 24-24 24 10.745 24 24-10.745 24-24 24z" fill="white"/>
  <path d="M96 72c-13.255 0-24 10.745-24 24s10.745 24 24 24 24-10.745 24-24-10.745-24-24-24zm0 36c-6.627 0-12-5.373-12-12s5.373-12 12-12 12 5.373 12 12-5.373 12-12 12z" fill="#ec4899"/>
  <path d="M84 84h24v24h-24z" fill="white"/>
  <path d="M88 88h16v16h-16z" fill="#ec4899"/>
</svg> 